# xmcd CD database file
#
# Track frame offsets:
#	150
#	20264
#	46653
#	60397
#	83107
#	113757
#	133330
#	154568
#	180673
#	208476
#	229070
#	248457
#	272422
#	291025
#	316550
#
# Disc length: 4564 seconds
#
# Revision: 0
# Processed by: cddbd v1.5.2PL0 Copyright (c) Steve Scherf et al.
# Submitted via: CDex 1.51
#
DISCID=bc11d20f
DTITLE=Diana Krall - The Very Best of Diana Krall
DYEAR=2007
DGENRE=Jazz
TTITLE0='S Wonderful
TTITLE1=Peel Me A Grape
TTITLE2=Pick Yourself Up
TTITLE3=Frim Fram Sauce
TTITLE4=You Got My Head
TTITLE5=Let's Fall In Love
TTITLE6=The Look Of Love
TTITLE7=East Of The Sun (And West Of The Moon)
TTITLE8=I've Got You Under My Skin
TTITLE9=All Or Nothing At All
TTITLE10=Only The Lonely
TTITLE11=Let's Face The Music And Dance
TTITLE12=The Heart Of Saturday Night
TTITLE13=Little Girl Blue
TTITLE14=Fly Me To The Moon
EXTD=YEAR: 2007
EXTT0=
EXTT1=
EXTT2=
EXTT3=
EXTT4=
EXTT5=
EXTT6=
EXTT7=
EXTT8=
EXTT9=
EXTT10=
EXTT11=
EXTT12=
EXTT13=
EXTT14=
PLAYORDER=
